<svg id="Layer_2" xmlns="http://www.w3.org/2000/svg" viewBox="0 0 276.14 278.05">
    <g id="logo">
        <path
                id="green-middle"
                d="m43.97,46.63l227.38-.45c-6.25,45.01-16.22,89.52-23.09,134.48-4.23,26.39-27.83,47.34-54.45,47.34-60.56.01-121.12,0-181.69,0,2.8-15.65,5.47-30.61,8.17-45.72,52.71,0,105.45-.24,158.16.12,14.93.1,26.39-12.24,27.98-23.63,3.55-22.7,8.06-44.16,11.67-67.15H36.35c2.6-15.32,7.62-44.99,7.62-44.99Z"
                fill="#7fc29b" />
        <path
                id="blue-p"
                d="m270.4,41.54c4.79.6,6.35,2.75,5.52,7.48-3.56,20.15-7.13,40.3-10.71,60.44-4.22,23.75-9.29,47.39-12.45,71.28-3.59,27.1-29.57,52.56-62.51,52.08-40.82-.6-81.65-.14-122.47-.14h-6.28c-2.15,12.25-4.27,24.17-6.32,36.1-1.52,8.85-1.96,9.27-10.82,9.27-12.16,0-24.33.01-36.49,0-7.29,0-8.71-1.53-7.48-8.62,4.75-27.2,9.61-54.39,14.42-81.58.29-1.64.51-3.29.8-4.93.58-3.29,2.59-4.89,5.9-4.9h154.97c14.69,0,23.32-7.29,25.86-21.68,3.21-18.19,6.46-36.36,9.67-54.55.29-1.63.4-3.29.69-5.73H40.85c-8.17,0-9.64-1.86-8.19-9.89,2.28-12.6,7-39.5,7.2-40.32.26-1.07.66-2.17,1.51-2.92.44-.39.97-.65,1.53-.8.25-.06,7.79-.19,8.78-.19,1.91,0,180.74-.51,214.23-.51,1.5,0,3.01-.08,4.49.11Zm.95,4.64l-227.38.45s-5.02,29.67-7.62,44.99h181.75c-1.82,10.68-3.49,20.76-5.26,30.81-2.13,12.12-4.71,24.16-6.41,36.34-1.59,11.39-13.05,23.73-27.98,23.63-50.48-.34-100.97-.13-151.45-.12h-6.71c-2.7,15.11-5.37,30.07-8.17,45.72h5.75c58.65,0,117.29.01,175.94,0,26.62,0,50.22-20.95,54.45-47.34,4.42-27.57,9.57-55.03,14.43-82.53,2.77-15.72,5.62-31.42,8.38-47.14.25-1.43.18-2.93.28-4.81Z"
                fill="#2975a8" />
        <path
                id="red-b"
                d="m44.76,41.94c2.5-13.98,4.99-27.96,7.49-41.94h45c-2.45,15.48-4.43,30.7-7.16,46.18h181.27c-6.26,45.01-16.21,89.52-23.09,134.48-4.23,26.39-27.83,47.33-54.45,47.34-60.59.02-121.09,0-181.69,0,2.79-15.65,5.47-30.61,8.17-45.72,52.8.02,105.39-.23,158.16.12,14.93.1,26.39-12.24,27.98-23.63,3.55-22.69,8.06-44.18,11.67-67.15H36.35c2.87-16.94,5.64-33.31,8.41-49.68Z"
                fill="#bd2c44" />
    </g>
</svg>